<svg data-v-423bf9ae="" xmlns="http://www.w3.org/2000/svg" viewBox="0 0 576 112" class="iconLeft"><!----><!----><!----><g data-v-423bf9ae="" id="b4a723ad-4676-4ccf-8379-ce167214262d" fill="url(#90cc702e-7290-4399-b444-8861b48246b3)" transform="matrix(5.639098067841383,0,0,5.639098067841383,105.19004965932297,9.032999297332324)"><path d="M2.23 13.43L2.23 6.78C2.23 6.30 2.23 5.82 2.17 5.38C2.25 5.64 2.63 6.36 2.83 6.68L6.93 13.43L8.23 13.43L8.23 3.63L7.06 3.63L7.06 9.94C7.06 10.43 7.07 11.24 7.13 11.59C7 11.27 6.72 10.77 6.50 10.39L2.35 3.63L1.05 3.63L1.05 13.43ZM14.95 11.89L11.87 3.63L10.63 3.63L10.09 13.43L11.31 13.43L11.59 7.84C11.61 7.52 11.62 7.14 11.62 6.78C11.62 6.41 11.61 6.05 11.61 5.74C11.80 6.38 12.11 7.25 12.29 7.73L14.39 13.43L15.50 13.43L17.61 7.74C17.77 7.32 18.10 6.38 18.31 5.74C18.30 6.10 18.28 6.58 18.28 7.03C18.28 7.32 18.30 7.60 18.31 7.84L18.59 13.43L19.80 13.43L19.28 3.63L18.02 3.63ZM24.67 13.43L24.67 4.70L27.31 4.70L27.31 3.63L20.73 3.63L20.73 4.70L23.39 4.70L23.39 13.43ZM32.12 5.80C32.12 4.97 32.69 4.51 33.88 4.51C34.66 4.51 35.32 4.63 35.99 4.82L35.99 3.78C35.43 3.63 34.83 3.49 33.77 3.49C31.79 3.49 30.88 4.40 30.88 5.81C30.88 6.94 31.51 7.64 33.18 8.85C34.62 9.87 35.03 10.37 35.03 11.06C35.03 12.04 34.37 12.52 33.14 12.52C32.14 12.52 31.23 12.32 30.74 12.19L30.74 13.26C31.12 13.36 32.05 13.57 33.17 13.57C35.13 13.57 36.26 12.70 36.26 11.00C36.26 9.79 35.56 9.09 34.09 8.01C32.48 6.82 32.12 6.50 32.12 5.80ZM40.43 13.57C42.27 13.57 43.64 12.53 43.64 10.07C43.64 7.71 42.36 6.61 40.43 6.61C38.53 6.61 37.24 7.71 37.24 10.07C37.24 12.53 38.61 13.57 40.43 13.57ZM42.36 10.05C42.36 11.72 41.65 12.57 40.43 12.57C39.24 12.57 38.53 11.72 38.53 10.05C38.53 8.37 39.30 7.60 40.43 7.60C41.59 7.60 42.36 8.37 42.36 10.05ZM45.09 2.93L45.09 11.56C45.09 12.85 45.57 13.47 46.91 13.47C47.07 13.47 47.21 13.45 47.36 13.44L47.36 12.43C47.22 12.46 47.12 12.46 47.00 12.46C46.52 12.46 46.37 12.14 46.37 11.54L46.37 2.93ZM54.26 13.43L54.26 6.75L53.00 6.75L53.00 8.13C52.98 9.97 52.50 12.50 50.82 12.50C50.08 12.50 49.71 12.08 49.71 11.02L49.71 6.75L48.45 6.75L48.45 11.27C48.45 12.71 49.01 13.55 50.47 13.55C51.79 13.55 52.58 12.91 53.03 11.77L53.16 13.43ZM59.74 12.38C59.40 12.45 59.18 12.49 58.86 12.49C58.09 12.49 57.78 12.17 57.78 11.12L57.78 7.71L59.61 7.71L59.61 6.75L57.78 6.75L57.78 5.07L57.18 5.07L56.57 6.75L55.45 6.75L55.45 7.71L56.52 7.71L56.52 11.26C56.52 12.78 57.02 13.50 58.56 13.50C59.09 13.50 59.40 13.44 59.74 13.36ZM60.80 3.72L60.80 5.10L62.08 5.10L62.08 3.72ZM60.80 6.75L60.80 11.56C60.80 12.85 61.28 13.47 62.62 13.47C62.78 13.47 62.92 13.45 63.07 13.44L63.07 12.43C62.93 12.46 62.83 12.46 62.71 12.46C62.23 12.46 62.08 12.14 62.08 11.54L62.08 6.75ZM67.02 13.57C68.85 13.57 70.22 12.53 70.22 10.07C70.22 7.71 68.95 6.61 67.02 6.61C65.11 6.61 63.83 7.71 63.83 10.07C63.83 12.53 65.20 13.57 67.02 13.57ZM68.95 10.05C68.95 11.72 68.24 12.57 67.02 12.57C65.83 12.57 65.11 11.72 65.11 10.05C65.11 8.37 65.88 7.60 67.02 7.60C68.18 7.60 68.95 8.37 68.95 10.05ZM72.98 13.43L72.98 12.82C73.01 10.15 73.74 7.66 75.32 7.66C75.99 7.66 76.29 8.13 76.29 9.31L76.29 13.43L77.53 13.43L77.53 8.90C77.53 7.46 77.03 6.61 75.73 6.61C74.34 6.61 73.46 7.41 72.95 8.85L72.93 6.75L71.71 6.75L71.71 13.43ZM80.28 8.33C80.28 7.83 80.63 7.60 81.48 7.60C81.98 7.60 82.73 7.69 83.08 7.84L83.08 6.85C82.77 6.72 82.11 6.61 81.41 6.61C79.72 6.61 79.04 7.24 79.04 8.27C79.04 9.31 79.65 9.76 80.88 10.46C81.90 11.06 82.14 11.37 82.14 11.76C82.14 12.36 81.52 12.59 80.74 12.59C80.16 12.59 79.60 12.50 78.96 12.29L78.96 13.29C79.42 13.45 80.19 13.57 80.92 13.57C82.15 13.57 83.37 13.20 83.37 11.75C83.37 10.60 82.70 10.18 81.72 9.60C80.64 8.96 80.28 8.75 80.28 8.33Z"></path></g><defs data-v-423bf9ae=""><linearGradient data-v-423bf9ae="" gradientTransform="rotate(25)" id="90cc702e-7290-4399-b444-8861b48246b3" x1="0%" y1="0%" x2="100%" y2="0%"><stop data-v-423bf9ae="" offset="0%" style="stop-color: rgb(75, 39, 155); stop-opacity: 1;"></stop><stop data-v-423bf9ae="" offset="100%" style="stop-color: rgb(223, 153, 216); stop-opacity: 1;"></stop></linearGradient></defs><g data-v-423bf9ae="" id="9c6ab7d7-d471-4b1f-a6b7-f9d53d7b4f7c" transform="matrix(1.1111111111111112,0,0,1.1111111111111112,0.44444444444444287,0.44444444444444287)" stroke="none" fill="url(#90cc702e-7290-4399-b444-8861b48246b3)"><path d="M82 30V0H52v12h-8V0h-6v47h-8V35H0v30h30V53h8v47h6V88h8v12h30V70H52v12h-8V18h8v12z"></path></g><!----></svg>